<?xml version="1.0" encoding="utf-8"?>
<!-- Generator: Adobe Illustrator 25.0.0, SVG Export Plug-In . SVG Version: 6.00 Build 0)  -->
<svg version="1.1" id="Layer_1" xmlns:svgjs="http://svgjs.com/svgjs"
	 xmlns="http://www.w3.org/2000/svg" xmlns:xlink="http://www.w3.org/1999/xlink" x="0px" y="0px" viewBox="0 0 512 512"
	 style="enable-background:new 0 0 512 512;" xml:space="preserve">
<style type="text/css">
	.st0{fill:#E6E7E8;}
	.st1{fill:#D4FBFF;}
	.st2{fill:#FFFFFF;}
	.st3{fill:#1B74E4;}
	.st4{fill:#FA759E;}
	.st5{fill:#3A2C60;}
</style>
<g>
	<path class="st0" d="M456.6,242c0-8.3-6.8-15.1-15.1-15.1h-23.7c-4-17.8-11-34.6-20.8-50.1l16.8-16.8c2.9-2.9,4.4-6.7,4.4-10.7
		s-1.6-7.8-4.4-10.7l-28.3-28.3c-5.9-5.9-15.5-5.9-21.4,0L347.3,127c-15.5-9.8-32.3-16.8-50.1-20.8V82.6c0-8.3-6.8-15.1-15.1-15.1
		h-40c-8.3,0-15.1,6.8-15.1,15.1v23.7c-17.8,4-34.6,11-50.1,20.8L160,110.3c-5.9-5.9-15.5-5.9-21.4,0l-28.3,28.3
		c-2.9,2.9-4.4,6.7-4.4,10.7s1.6,7.8,4.4,10.7l16.8,16.8c-9.8,15.5-16.8,32.3-20.8,50.1H82.6c-8.3,0-15.1,6.8-15.1,15.1v40
		c0,8.3,6.8,15.1,15.1,15.1h23.7c4,17.8,11,34.6,20.8,50.1L110.3,364c-5.9,5.9-5.9,15.5,0,21.4l28.3,28.3c5.7,5.7,15.7,5.7,21.4,0
		l16.8-16.8c15.5,9.8,32.3,16.8,50.1,20.8v23.7c0,8.3,6.8,15.1,15.1,15.1h40c8.3,0,15.1-6.8,15.1-15.1v-23.7
		c17.8-4,34.6-11,50.1-20.8l16.8,16.8c5.7,5.7,15.7,5.7,21.4,0l28.3-28.3c2.9-2.9,4.4-6.7,4.4-10.7s-1.6-7.8-4.4-10.7L397,347.3
		c9.8-15.5,16.8-32.3,20.8-50.1h23.7c8.3,0,15.1-6.8,15.1-15.1L456.6,242z"/>
	<path class="st0" d="M110,90.8c0.9,0,1.9-0.3,2.6-1C154.1,53.8,207.1,34,262,34c52.5,0,103.4,18.2,144,51.4l-17.1,2.3
		c-2.2,0.3-3.7,2.3-3.4,4.5c0.3,2,2,3.5,4,3.5c0.2,0,0.4,0,0.5,0l26.1-3.5c2.2-0.3,3.7-2.3,3.4-4.5L416,61.4
		c-0.3-2.2-2.3-3.7-4.5-3.4c-2.2,0.3-3.7,2.3-3.4,4.5l2.2,16C368.3,44.6,316,26,262,26c-56.8,0-111.7,20.5-154.6,57.8
		c-1.7,1.4-1.8,4-0.4,5.6C107.8,90.4,108.9,90.8,110,90.8z"/>
	<path class="st0" d="M411.4,434.2c-41.5,36-94.5,55.8-149.4,55.8c-52,0-102.4-17.8-142.8-50.4l17-1.5c2.2-0.2,3.8-2.1,3.6-4.3
		s-2.1-3.8-4.3-3.6l-26.3,2.4c-2.2,0.2-3.8,2.1-3.6,4.3l2.4,26.3c0.2,2.1,1.9,3.6,4,3.6c0.1,0,0.2,0,0.4,0c2.2-0.2,3.8-2.1,3.6-4.3
		l-1.5-16.3C156.2,479.6,208.3,498,262,498c56.8,0,111.7-20.5,154.6-57.8c1.7-1.4,1.8-4,0.4-5.6S413.1,432.7,411.4,434.2
		L411.4,434.2z"/>
	<path class="st0" d="M489.3,361.1l-15.6,5.3C489.6,334.1,498,298.2,498,262c0-39.3-9.9-78.3-28.5-112.6c-1.1-1.9-3.5-2.7-5.4-1.6
		c-1.9,1.1-2.7,3.5-1.6,5.4C480.5,186.4,490,224,490,262c0,35.1-8.2,69.8-23.7,101l-5.4-15.9c-0.7-2.1-3-3.2-5.1-2.5
		c-2.1,0.7-3.2,3-2.5,5.1l8.5,25c0.6,1.7,2.1,2.7,3.8,2.7c0.4,0,0.9-0.1,1.3-0.2l25-8.5c2.1-0.7,3.2-3,2.5-5.1
		C493.7,361.5,491.4,360.4,489.3,361.1z"/>
	<path class="st0" d="M70.8,174.3L62,149.4c-0.4-1-1.1-1.8-2-2.3c-1-0.5-2.1-0.5-3.1-0.2L32,155.7c-2.1,0.7-3.2,3-2.4,5.1
		s3,3.2,5.1,2.4l15.5-5.5C34.4,190,26,225.8,26,262c0,39.3,9.9,78.3,28.5,112.6c0.7,1.3,2.1,2.1,3.5,2.1c0.6,0,1.3-0.2,1.9-0.5
		c1.9-1.1,2.7-3.5,1.6-5.4C43.5,337.6,34,300,34,262c0-35,8.2-69.7,23.6-100.9l5.6,15.9c0.6,1.6,2.1,2.7,3.8,2.7
		c0.4,0,0.9-0.1,1.3-0.2C70.4,178.6,71.5,176.3,70.8,174.3L70.8,174.3z"/>
</g>
<g>
	<ellipse class="st1" cx="246" cy="246" rx="107.7" ry="107.7"/>
	<path class="st2" d="M246,150.3c57.5,0,104.4,45,107.5,101.7c0.1-2,0.2-4,0.2-6c0-59.5-48.2-107.7-107.7-107.7
		c-59.5,0-107.7,48.2-107.7,107.7c0,2,0.1,4,0.2,6C141.6,195.3,188.5,150.3,246,150.3z"/>
	<path class="st3" d="M436.6,266v-40c0-6.1-5-11.1-11.1-11.1h-26.9c-4-19.9-11.9-38.3-22.7-54.7l19.1-19.1c4.3-4.3,4.3-11.4,0-15.7
		l-28.3-28.3c-4.3-4.3-11.4-4.3-15.7,0l-19.1,19.1c-16.3-10.8-34.8-18.7-54.7-22.7V66.6c0-6.2-5-11.1-11.1-11.1h-40
		c-6.2,0-11.1,5-11.1,11.1v26.9c-19.9,4-38.4,11.9-54.7,22.7l-19.1-19.1c-4.3-4.3-11.4-4.3-15.7,0l-28.3,28.3
		c-4.3,4.3-4.3,11.4,0,15.7l19.1,19.1c-10.8,16.3-18.7,34.8-22.7,54.7H66.6c-6.1,0-11.1,5-11.1,11.1v40c0,6.2,5,11.1,11.1,11.1h26.9
		c4,19.9,11.9,38.4,22.7,54.7l-19.1,19.1c-4.3,4.3-4.3,11.4,0,15.7l28.3,28.3c4.3,4.3,11.4,4.3,15.7,0l19.1-19.1
		c16.3,10.8,34.8,18.7,54.7,22.7v26.9c0,6.2,5,11.1,11.1,11.1h40c6.2,0,11.1-5,11.1-11.1v-26.9c19.9-4,38.4-11.9,54.7-22.7
		l19.1,19.1c4.3,4.3,11.4,4.3,15.7,0l28.3-28.3c4.3-4.3,4.3-11.4,0-15.7l-19.1-19.1c10.8-16.3,18.7-34.8,22.7-54.7h26.9
		C431.6,277.1,436.6,272.1,436.6,266L436.6,266z M246,353.7c-59.5,0-107.7-48.2-107.7-107.7c0-59.5,48.2-107.7,107.7-107.7
		c59.5,0,107.7,48.2,107.7,107.7C353.7,305.5,305.5,353.7,246,353.7L246,353.7z"/>
	<path class="st4" d="M201.3,297V195c0-6.5,7-10.7,12.7-7.6l94,51c6,3.3,6,11.9,0,15.2l-94,51C208.3,307.7,201.3,303.6,201.3,297z"
		/>
	<g>
		<path class="st5" d="M329.2,307.9c-8.3,11.2-18.7,20.5-30.7,27.5c-1.9,1.1-2.5,3.6-1.4,5.5c0.7,1.3,2.1,2,3.4,2
			c0.7,0,1.4-0.2,2-0.6c12.9-7.6,24-17.6,33-29.6c1.3-1.8,1-4.3-0.8-5.6C333.1,305.8,330.5,306.1,329.2,307.9z"/>
		<path class="st5" d="M440.6,226c0-8.3-6.8-15.1-15.1-15.1h-23.7c-4-17.8-11-34.6-20.8-50.1l16.8-16.8c2.9-2.9,4.4-6.7,4.4-10.7
			s-1.6-7.8-4.4-10.7l-28.3-28.3c-5.9-5.9-15.5-5.9-21.4,0L331.3,111c-15.5-9.8-32.3-16.8-50.1-20.8V66.6c0-8.3-6.8-15.1-15.1-15.1
			h-40c-8.3,0-15.1,6.8-15.1,15.1v23.7c-17.8,4-34.6,11-50.1,20.8L144,94.3c-5.9-5.9-15.5-5.9-21.4,0l-28.3,28.3
			c-5.9,5.9-5.9,15.5,0,21.4l16.8,16.8c-9.8,15.5-16.8,32.3-20.8,50.1H66.6c-8.3,0-15.1,6.8-15.1,15.1v40c0,8.3,6.8,15.1,15.1,15.1
			h23.7c4,17.8,11,34.6,20.8,50.1L94.3,348c-5.9,5.9-5.9,15.5,0,21.4l28.3,28.3c5.7,5.7,15.7,5.7,21.4,0l16.8-16.8
			c15.5,9.8,32.3,16.8,50.1,20.8v23.7c0,8.3,6.8,15.1,15.1,15.1h40c8.3,0,15.1-6.8,15.1-15.1v-23.7c17.8-4,34.6-11,50.1-20.8
			l16.8,16.8c5.7,5.7,15.7,5.7,21.4,0l28.3-28.3c2.9-2.9,4.4-6.7,4.4-10.7s-1.6-7.8-4.4-10.7L381,331.3
			c9.8-15.5,16.8-32.3,20.8-50.1h23.7c8.3,0,15.1-6.8,15.1-15.1V226z M432.6,266c0,3.9-3.2,7.1-7.1,7.1h-26.9
			c-1.9,0-3.5,1.3-3.9,3.2c-3.9,19-11.3,37-22.1,53.3c-1.1,1.6-0.8,3.7,0.5,5l19.1,19.1c1.3,1.3,2.1,3.1,2.1,5c0,1.9-0.7,3.7-2.1,5
			l-28.3,28.3c-2.7,2.7-7.4,2.7-10.1,0L334.7,373c-1.3-1.3-3.5-1.6-5-0.5c-16.3,10.8-34.2,18.2-53.3,22.1c-1.9,0.4-3.2,2-3.2,3.9
			v26.9c0,3.9-3.2,7.1-7.1,7.1h-40c-3.9,0-7.1-3.2-7.1-7.1v-26.9c0-1.9-1.3-3.5-3.2-3.9c-19-3.9-37-11.3-53.3-22.1
			c-0.7-0.4-1.4-0.7-2.2-0.7c-1,0-2.1,0.4-2.8,1.2l-19.1,19.1c-2.7,2.7-7.4,2.7-10.1,0l-28.3-28.3c-2.8-2.8-2.8-7.3,0-10.1
			l19.1-19.1c1.3-1.3,1.6-3.5,0.5-5c-10.8-16.3-18.2-34.2-22.1-53.3c-0.4-1.9-2-3.2-3.9-3.2H66.6c-3.9,0-7.1-3.2-7.1-7.1v-40
			c0-3.9,3.2-7.1,7.1-7.1h26.9c1.9,0,3.5-1.3,3.9-3.2c3.9-19,11.3-37,22.1-53.3c1.1-1.6,0.8-3.7-0.5-5l-19.1-19.1
			c-2.8-2.8-2.8-7.3,0-10.1l28.3-28.3c2.8-2.8,7.3-2.8,10.1,0l19.1,19.1c1.3,1.3,3.5,1.6,5,0.5c16.3-10.8,34.2-18.2,53.3-22.1
			c1.9-0.4,3.2-2,3.2-3.9V66.6c0-3.9,3.2-7.1,7.1-7.1h40c3.9,0,7.1,3.2,7.1,7.1v26.9c0,1.9,1.3,3.5,3.2,3.9
			c19,3.9,37,11.3,53.3,22.1c1.6,1,3.7,0.8,5-0.5l19.1-19.1c2.8-2.8,7.3-2.8,10.1,0l28.3,28.3c1.3,1.3,2.1,3.1,2.1,5
			c0,1.9-0.7,3.7-2.1,5L373,157.4c-1.3,1.3-1.6,3.5-0.5,5c10.8,16.3,18.2,34.2,22.1,53.3c0.4,1.9,2,3.2,3.9,3.2h26.9
			c3.9,0,7.1,3.2,7.1,7.1L432.6,266L432.6,266z"/>
		<path class="st5" d="M246,134.3c-61.6,0-111.7,50.1-111.7,111.7S184.4,357.7,246,357.7c12.3,0,24.5-2,36.1-5.9
			c2.1-0.7,3.2-3,2.5-5.1c-0.7-2.1-3-3.2-5.1-2.5c-10.8,3.7-22,5.5-33.5,5.5c-57.2,0-103.7-46.5-103.7-103.7S188.8,142.3,246,142.3
			S349.7,188.8,349.7,246c0,16.2-3.6,31.6-10.7,46c-1,2-0.2,4.4,1.8,5.4c2,1,4.4,0.2,5.4-1.8c7.7-15.5,11.6-32.2,11.6-49.6
			C357.7,184.4,307.6,134.3,246,134.3L246,134.3z"/>
		<path class="st5" d="M316.5,246c0-4.6-2.5-8.9-6.6-11.1l-94-51c-3.9-2.1-8.6-2-12.5,0.2c-3.9,2.3-6.2,6.4-6.2,10.8v102
			c0,4.5,2.3,8.5,6.2,10.8c2,1.2,4.2,1.8,6.4,1.8c2.1,0,4.1-0.5,6-1.5l94-51C314,254.9,316.5,250.6,316.5,246L316.5,246z
			 M306.1,250.1l-94,51c-2.1,1.1-3.9,0.3-4.6-0.1c-0.7-0.4-2.3-1.6-2.3-4V195c0-2.4,1.6-3.6,2.3-4c0.4-0.3,1.3-0.7,2.4-0.7
			c0.7,0,1.4,0.1,2.2,0.6l94,51c1.5,0.8,2.4,2.3,2.4,4.1S307.6,249.2,306.1,250.1L306.1,250.1z"/>
		<path class="st5" d="M94,74.8c0.9,0,1.9-0.3,2.6-1C138.1,37.8,191.1,18,246,18c52.5,0,103.4,18.2,144,51.4l-17.1,2.3
			c-2.2,0.3-3.7,2.3-3.4,4.5c0.3,2,2,3.5,4,3.5c0.2,0,0.4,0,0.5,0l26.1-3.5c2.2-0.3,3.7-2.3,3.4-4.5L400,45.4
			c-0.3-2.2-2.3-3.7-4.5-3.4c-2.2,0.3-3.7,2.3-3.4,4.5l2.2,16C352.3,28.6,300,10,246,10c-56.8,0-111.7,20.5-154.6,57.8
			c-1.7,1.4-1.8,4-0.4,5.6C91.8,74.4,92.9,74.8,94,74.8L94,74.8z"/>
		<path class="st5" d="M395.4,418.2c-41.5,36-94.5,55.8-149.4,55.8c-52,0-102.4-17.8-142.8-50.4l17-1.5c2.2-0.2,3.8-2.1,3.6-4.3
			s-2.1-3.8-4.3-3.6l-26.3,2.4c-2.2,0.2-3.8,2.1-3.6,4.3l2.4,26.3c0.2,2.1,1.9,3.6,4,3.6c0.1,0,0.2,0,0.4,0c2.2-0.2,3.8-2.1,3.6-4.3
			l-1.5-16.3C140.2,463.6,192.3,482,246,482c56.8,0,111.7-20.5,154.6-57.8c1.7-1.4,1.8-4,0.4-5.6S397.1,416.7,395.4,418.2
			L395.4,418.2z"/>
		<path class="st5" d="M473.3,345.1l-15.6,5.3C473.6,318.1,482,282.2,482,246c0-39.3-9.9-78.3-28.5-112.6c-1.1-1.9-3.5-2.7-5.4-1.6
			c-1.9,1.1-2.7,3.5-1.6,5.4C464.5,170.4,474,208,474,246c0,35.1-8.2,69.8-23.7,101l-5.4-15.9c-0.7-2.1-3-3.2-5.1-2.5
			c-2.1,0.7-3.2,3-2.5,5.1l8.5,25c0.6,1.7,2.1,2.7,3.8,2.7c0.4,0,0.9-0.1,1.3-0.2l25-8.5c2.1-0.7,3.2-3,2.5-5.1
			C477.7,345.5,475.4,344.4,473.3,345.1L473.3,345.1z"/>
		<path class="st5" d="M54.8,158.3L46,133.4c-0.4-1-1.1-1.8-2-2.3c-1-0.5-2.1-0.5-3.1-0.2L16,139.7c-2.1,0.7-3.2,3-2.4,5.1
			s3,3.2,5.1,2.4l15.5-5.5C18.4,174,10,209.8,10,246c0,39.3,9.9,78.3,28.5,112.6c0.7,1.3,2.1,2.1,3.5,2.1c0.6,0,1.3-0.2,1.9-0.5
			c1.9-1.1,2.7-3.5,1.6-5.4C27.5,321.6,18,284,18,246c0-35,8.2-69.7,23.6-100.9l5.6,15.9c0.6,1.6,2.1,2.7,3.8,2.7
			c0.4,0,0.9-0.1,1.3-0.2C54.4,162.6,55.5,160.3,54.8,158.3L54.8,158.3z"/>
	</g>
</g>
</svg>
