<?xml version="1.0" encoding="utf-8"?>
<!-- Generator: Adobe Illustrator 25.0.0, SVG Export Plug-In . SVG Version: 6.00 Build 0)  -->
<svg version="1.1" id="Layer_1" xmlns:svgjs="http://svgjs.com/svgjs"
	 xmlns="http://www.w3.org/2000/svg" xmlns:xlink="http://www.w3.org/1999/xlink" x="0px" y="0px" viewBox="0 0 512 512"
	 style="enable-background:new 0 0 512 512;" xml:space="preserve">
<style type="text/css">
	.st0{fill-rule:evenodd;clip-rule:evenodd;fill:url(#SVGID_1_);}
</style>
<g>
	
		<linearGradient id="SVGID_1_" gradientUnits="userSpaceOnUse" x1="77.4041" y1="49.7316" x2="425.3407" y2="397.6682" gradientTransform="matrix(1 0 0 -1 0 512)">
		<stop  offset="0" style="stop-color:#0F6BE2"/>
		<stop  offset="1" style="stop-color:#46BCFC"/>
	</linearGradient>
	<path class="st0" d="M133.7,114h194.6c9.3,0,16.9,7.6,16.9,16.9c0,9.3-7.6,16.9-16.9,16.9H133.7c-9.3,0-16.9-7.6-16.9-16.9
		C116.7,121.7,124.4,114,133.7,114L133.7,114z M328.3,165.9H133.7c-1.8,0-3.6-0.1-5.3-0.4C50.3,244.7-10,351.5,58.6,441.4
		c29.6,38.8,71.6,59.6,120.4,59.6h103.8c33.1,0,63-9.5,88.1-27.7l-17.3-18.5c-13.3-14.2-3.2-37.6,16.3-37.6h4.3V281
		c0-15.4,12.1-28,27.3-28.8c-18-30.9-42-60.3-68-86.7C331.8,165.8,330.1,165.9,328.3,165.9z M231,230.2c52.1,0,94.3,42.2,94.3,94.3
		c0,52.1-42.2,94.3-94.3,94.3c-52.1,0-94.3-42.2-94.3-94.3C136.7,272.4,178.9,230.2,231,230.2L231,230.2z M165.7,48.4
		c-62-22.9-67.2-10.6-41.8,25.6C131,84,135.3,90.5,138.4,96h185.1c3.1-5.5,7.4-12,14.5-22.1c25.4-36.2,20.2-48.5-41.8-25.6
		C270.2,58,281.2,11,231,11C180.8,11,191.7,58,165.7,48.4L165.7,48.4z M403.1,270.2h42.7c6,0,10.8,4.9,10.8,10.8v154.2H479
		c3.8,0,5.8,4.5,3.2,7.3l-52.5,56.3c-2.8,3-7.5,3-10.3,0l-52.5-56.3c-2.6-2.8-0.6-7.3,3.2-7.3h22.3V281
		C392.3,275,397.2,270.2,403.1,270.2L403.1,270.2z M231,255.7c38,0,68.8,30.8,68.8,68.8S269,393.2,231,393.2
		c-38,0-68.8-30.8-68.8-68.8S193,255.7,231,255.7L231,255.7z M222.7,281.1c0-5,4-9,9-9s9,4,9,9v2.3c1.8,0.5,3.5,1.1,5.1,2
		c3.6,1.9,6.7,4.5,9.1,7.8c2.9,4,2,9.6-2,12.5c-3,2.2-6.9,2.2-9.9,0.4c-1-0.6-1.9-1.4-2.6-2.4c-1.4-2-3.6-3.1-6.1-3.1h-5.2
		c-4.1,0-7.4,3.4-7.4,7.4c0,4.1,3.4,7.4,7.4,7.4h3.7c14,0,25.4,11.4,25.4,25.4c0,11.8-8.1,21.8-19,24.6v2.3c0,5-4,9-9,9s-9-4-9-9
		v-2.3c-5.7-1.5-10.7-5-14.2-9.8c-2.9-4-2-9.6,2-12.5c4-2.9,9.6-2,12.5,2c1.4,2,3.6,3.1,6.1,3.1h5.2c4.1,0,7.4-3.4,7.4-7.4
		c0-4.1-3.4-7.4-7.4-7.4h-3.7c-1.2,0-2.5-0.1-3.7-0.3c-12.4-1.8-21.8-12.6-21.8-25.2c0-11.6,7.9-21.7,19-24.6L222.7,281.1
		L222.7,281.1z"/>
</g>
</svg>
