<?xml version="1.0" encoding="utf-8"?>
<!-- Generator: Adobe Illustrator 25.0.0, SVG Export Plug-In . SVG Version: 6.00 Build 0)  -->
<svg version="1.1" id="Layer_1" xmlns:svgjs="http://svgjs.com/svgjs"
	 xmlns="http://www.w3.org/2000/svg" xmlns:xlink="http://www.w3.org/1999/xlink" x="0px" y="0px" viewBox="0 0 512 512"
	 style="enable-background:new 0 0 512 512;" xml:space="preserve">
<style type="text/css">
	.st0{fill-rule:evenodd;clip-rule:evenodd;fill:#0F6BE2;}
</style>
<g>
	<path class="st0" d="M166.4,283.7h179.3c7.7,0,14-6,14-13.4s-6.3-13.4-14-13.4H166.4c-7.7,0-14,6-14,13.4S158.6,283.7,166.4,283.7
		L166.4,283.7z"/>
	<path class="st0" d="M166.4,341h179.3c7.7,0,14-6,14-13.4s-6.3-13.4-14-13.4H166.4c-7.7,0-14,6-14,13.4S158.6,341,166.4,341
		L166.4,341z"/>
	<path class="st0" d="M166.4,398.2h179.3c7.7,0,14-6,14-13.4s-6.3-13.4-14-13.4H166.4c-7.7,0-14,6-14,13.4S158.6,398.2,166.4,398.2
		L166.4,398.2z"/>
	<path class="st0" d="M256,197.9h89.6c7.7,0,14-6,14-13.4s-6.3-13.4-14-13.4H256c-7.7,0-14,6-14,13.4S248.3,197.9,256,197.9z"/>
	<path class="st0" d="M301.8,54.8v30.4h-91.5V54.8H301.8z M329.8,83.4v15.2c0,7.4-6.3,13.4-14,13.4H196.3c-7.7,0-14-6-14-13.4V83.4
		h-79.6v373.7h306.6V83.4H329.8z M182.2,56.6H88.7c-7.7,0-14,6-14,13.4v400.6c0,7.4,6.3,13.4,14,13.4h334.7c7.7,0,14-6,14-13.4V70
		c0-7.4-6.3-13.4-14-13.4h-93.6V41.4c0-7.4-6.3-13.4-14-13.4H196.3c-7.7,0-14,6-14,13.4L182.2,56.6z"/>
	<path class="st0" d="M152.4,171h-15.9c-7.7,0-14,6-14,13.4s6.3,13.4,14,13.4h15.9v15.2c0,7.4,6.3,13.4,14,13.4s14-6,14-13.4v-15.2
		h15.9c7.7,0,14-6,14-13.4s-6.3-13.4-14-13.4h-15.9v-15.2c0-7.4-6.3-13.4-14-13.4s-14,6-14,13.4V171z"/>
</g>
</svg>
