<?xml version="1.0" encoding="utf-8"?>
<!-- Generator: Adobe Illustrator 25.0.0, SVG Export Plug-In . SVG Version: 6.00 Build 0)  -->
<svg version="1.1" id="Layer_1" xmlns:svgjs="http://svgjs.com/svgjs"
	 xmlns="http://www.w3.org/2000/svg" xmlns:xlink="http://www.w3.org/1999/xlink" x="0px" y="0px" viewBox="0 0 512 512"
	 style="enable-background:new 0 0 512 512;" xml:space="preserve">
<style type="text/css">
	.st0{fill:#0F6BE2;}
	.st1{fill:#FFCB03;}
	.st2{fill:#46BCFC;}
	.st3{fill:#FFD869;}
	.st4{fill:#17AAFD;}
</style>
<path class="st0" d="M229.3,85.3v85.3c0,32.4-26.2,58.6-58.6,58.7c0,0-0.1,0-0.1,0H85.3c-25.1,0-47.4-16-55.5-39.7
	c-2.1-6.1-3.2-12.5-3.2-19V85.3c0-32.4,26.2-58.6,58.6-58.7c0,0,0.1,0,0.1,0h85.3c6.5,0,12.9,1.1,19,3.2
	C213.4,38,229.3,60.3,229.3,85.3z"/>
<path class="st1" d="M485.3,128c0,55.9-45.3,101.3-101.2,101.3c-32.8,0-63.6-15.9-82.6-42.7c-12.3-17.1-18.8-37.6-18.8-58.7
	c0-55.9,45.4-101.3,101.3-101.3C439.9,26.7,485.3,72.1,485.3,128z"/>
<path class="st2" d="M189.7,29.9c-13,82.3-77.5,146.8-159.8,159.8c-2.1-6.1-3.2-12.5-3.2-19V85.3c0-32.4,26.2-58.6,58.6-58.7
	c0,0,0.1,0,0.1,0h85.3C177.1,26.6,183.6,27.7,189.7,29.9L189.7,29.9z"/>
<path class="st3" d="M442.7,45.4c-17.2,69.7-71.6,124-141.2,141.2c-12.3-17.1-18.8-37.6-18.8-58.7c0-55.9,45.4-101.3,101.3-101.3
	C405,26.6,425.6,33.2,442.7,45.4z"/>
<path class="st0" d="M485.3,341.3v85.3c0,32.4-26.2,58.6-58.6,58.7c0,0-0.1,0-0.1,0h-85.3c-32.4,0-58.6-26.2-58.7-58.6
	c0,0,0-0.1,0-0.1v-85.3c0-32.4,26.2-58.6,58.6-58.7c0,0,0.1,0,0.1,0h85.3c5,0,9.9,0.6,14.7,1.9C467.3,291.2,485.4,314.6,485.3,341.3
	z"/>
<path class="st0" d="M229.3,341.3v85.3c0,32.4-26.2,58.6-58.6,58.7c0,0-0.1,0-0.1,0H85.3c-32.4,0-58.6-26.2-58.7-58.6
	c0,0,0-0.1,0-0.1v-85.3c0-32.4,26.2-58.6,58.6-58.7c0,0,0.1,0,0.1,0h85.3c5,0,9.9,0.6,14.7,1.9C211.3,291.2,229.4,314.6,229.3,341.3
	z"/>
<path class="st4" d="M185.4,284.6c-20,74.3-82.5,129.5-158.7,140.2v-83.4c0-32.4,26.2-58.6,58.6-58.7c0,0,0.1,0,0.1,0h85.3
	C175.6,282.6,180.6,283.3,185.4,284.6z"/>
<path class="st4" d="M441.4,284.6c-20,74.3-82.5,129.5-158.7,140.2v-83.4c0-32.4,26.2-58.6,58.6-58.7c0,0,0.1,0,0.1,0h85.3
	C431.6,282.6,436.6,283.3,441.4,284.6z"/>
</svg>
