<?xml version="1.0" encoding="utf-8"?>
<!-- Generator: Adobe Illustrator 25.0.0, SVG Export Plug-In . SVG Version: 6.00 Build 0)  -->
<svg version="1.1" id="Layer_1" xmlns:svgjs="http://svgjs.com/svgjs"
	 xmlns="http://www.w3.org/2000/svg" xmlns:xlink="http://www.w3.org/1999/xlink" x="0px" y="0px" viewBox="0 0 512 512"
	 style="enable-background:new 0 0 512 512;" xml:space="preserve">
<style type="text/css">
	.st0{fill:#17AAFD;}
	.st1{fill:#D8ECFE;}
	.st2{fill:#333333;}
	.st3{fill:#0F6BE2;}
</style>
<path class="st0" d="M249.7,2.4C212.3,36.4,137.3,60.6,49,64.3c-5,0.2-9,4.3-9,9.3V250c0,88.6,47.7,170.4,124.8,214.2l78.3,44.4
	c8,4.6,17.9,4.6,25.9,0l78.3-44.4C424.3,420.5,472,338.7,472,250V73.6c0-5-4-9.1-9-9.3c-88.4-3.7-163.4-27.9-200.8-61.9
	C258.7-0.8,253.3-0.8,249.7,2.4L249.7,2.4z"/>
<path class="st1" d="M185.1,430.1C120.2,393.4,79.9,324.2,79.9,249.6V110.1c0-4.4,3.3-8.1,7.6-8.6c65.3-7.5,122.3-25.2,163.9-50.7
	c2.8-1.7,6.2-1.7,9,0c41.6,25.5,98.6,43.2,163.9,50.7c4.4,0.5,7.6,4.2,7.6,8.6v139.5c0,74.6-40.3,143.7-105.1,180.5l-66.7,37.8
	c-2.6,1.5-5.9,1.5-8.5,0L185.1,430.1z"/>
<path class="st0" d="M256,104.4c-41.2,0-74.8,33.5-74.8,74.8V228h29.4c0-7,0-41.8,0-48.9c0-25,20.4-45.4,45.4-45.4
	s45.4,20.4,45.4,45.4V228h29.4c0-7,0-41.8,0-48.9C330.8,137.9,297.2,104.4,256,104.4z"/>
<path class="st0" d="M341.1,362.5H170.9c-10.3,0-18.7-8.4-18.7-18.7V221.9c0-10.3,8.4-18.7,18.7-18.7h170.2
	c10.3,0,18.7,8.4,18.7,18.7v121.9C359.8,354.1,351.4,362.5,341.1,362.5z"/>
<path class="st2" d="M283,263.2c0-14.9-12.1-27-27-27c-14.9,0-27,12.1-27,27c0,10,5.4,18.6,13.4,23.3v31.1c0,7.5,6.1,13.5,13.5,13.5
	c7.5,0,13.5-6.1,13.5-13.5v-31.1C277.5,281.8,283,273.1,283,263.2z"/>
<path class="st3" d="M341.1,203.2h-29.2c10.3,0,18.7,8.4,18.7,18.7v121.9c0,10.3-8.4,18.7-18.7,18.7h29.2c10.3,0,18.7-8.4,18.7-18.7
	V221.9C359.8,211.5,351.4,203.2,341.1,203.2z"/>
<g>
	<path class="st3" d="M463,64.3c-11.2-0.5-22.2-1.3-33-2.4c1.4,1.6,2.2,3.7,2.2,6v176.4c0,88.6-47.7,170.4-124.8,214.2l-76.4,43.3
		l11.9,6.7c8,4.6,17.9,4.6,25.9,0l78.3-44.4C424.3,420.5,472,338.7,472,250V73.6C472,68.6,468,64.5,463,64.3z"/>
</g>
</svg>
